<svg xmlns="http://www.w3.org/2000/svg" xmlns:xlink="http://www.w3.org/1999/xlink" version="1.1" x="0px" y="0px" viewBox="0 0 100 100" enable-background="new 0 0 100 100" xml:space="preserve"><path d="M90.6,59.3l-3.2-12.2c-0.3-1.3-1.9-1.8-2.9-1l-9.9,7.7c-1.5,1.1-0.5,3.5,1.3,3.3l3-0.3c0,0.1-0.1,0.2-0.1,0.2  c-1.1,3-10.8,12-13.6,14c-2.2,1.6-7.5,4.8-7.9,5c0,0,0,0-0.1,0L55,38.3l16.8-1V30l-17.4-1.1L54,20.6c2.5-1.7,4-4.8,3.3-8.1  c-0.6-2.9-3-5.2-5.8-5.8c-5-1-9.4,2.7-9.4,7.5c0,2.9,1.6,5.4,3.9,6.7l-0.5,8L28.1,30v7.2l16.8,1l-2.2,36.8c-2.7-1.6-5.4-3.3-8-5.1  c-2.8-2-12.5-11-13.6-14c0,0,0-0.1-0.1-0.2l3,0.3c1.8,0.2,2.8-2.1,1.3-3.3l-9.9-7.7c-1-0.8-2.6-0.3-2.9,1L9.4,58.3  c-0.5,1.8,1.7,3.1,3,1.8l2.7-2.5c2.4,8.7,9.2,15.5,15.8,21.3C37,84.4,50,93.5,50,93.5s15.4-10.2,19.2-13.6  c6.6-5.8,13.4-12.6,15.8-21.3l2.7,2.5C88.9,62.4,91.1,61.1,90.6,59.3z M50.5,18.2c-2.9,0.5-5.3-1.9-4.8-4.8c0.3-1.6,1.6-2.9,3.2-3.2  c2.9-0.5,5.3,1.9,4.8,4.8C53.4,16.6,52.1,17.9,50.5,18.2z"></path></svg>