<?xml version="1.0" encoding="UTF-8"?>
<!-- Generator: Adobe Illustrator 18.0.0, SVG Export Plug-In . SVG Version: 6.00 Build 0)  -->
<!DOCTYPE svg PUBLIC "-//W3C//DTD SVG 1.1//EN" "http://www.w3.org/Graphics/SVG/1.1/DTD/svg11.dtd">
<svg xmlns="http://www.w3.org/2000/svg" xmlns:xlink="http://www.w3.org/1999/xlink" xmlns:dc="http://purl.org/dc/elements/1.1/" xmlns:cc="http://creativecommons.org/ns#" xmlns:rdf="http://www.w3.org/1999/02/22-rdf-syntax-ns#" version="1.1" id="DESIGNS" x="0px" y="0px" width="32px" height="32px" viewBox="0 0 32 32" style="enable-background:new 0 0 32 32;" xml:space="preserve">
<title property="dc:title">to sparkle</title><desc property="dc:description">An icon for "sparkle" from the Blueprint series on to [icon]. Downloaded from http://www.toicon.com/icons/blueprint_sparkle by 192.161.159.18 on 2015-08-13. Licensed CC-BY, see http://toicon.com/license/ for details.</desc><path style="fill:#0B1719;" d="M31.74,7.481l-3.464-6.928C28.107,0.214,27.761,0,27.382,0H4.618C4.239,0,3.893,0.214,3.724,0.553  L0.26,7.481c-0.16,0.321-0.137,0.703,0.062,1.002l14.846,22.269c0.198,0.297,0.515,0.445,0.832,0.445s0.634-0.148,0.832-0.445  L31.678,8.483C31.877,8.184,31.901,7.802,31.74,7.481z M21.209,8L16,27.1L10.791,8H21.209z M10.781,7L16,2.651L21.219,7H10.781z   M16.781,2h9.512L21.97,6.324L16.781,2z M10.03,6.324L5.707,2h9.512L10.03,6.324z M9.293,7H2.736l2.186-4.371L9.293,7z M9.754,8  l5.089,18.66L2.404,8H9.754z M22.246,8h7.351l-12.44,18.66L22.246,8z M22.707,7l4.372-4.371L29.264,7H22.707z"/>
<metadata><work rdf:about=""><format>image/svg+xml</format><type rdf:resource="http://purl.org/dc/dcmitype/StillImage"/><license rdf:resource="http://creativecommons.org/licenses/by/4.0/"/><attributionname>Shannon E Thomas</attributionname><attributionurl>http://www.toicon.com/icons/blueprint_sparkle</attributionurl></work></metadata></svg>
