<?xml version="1.0" encoding="UTF-8"?>
<!-- Generator: Adobe Illustrator 18.0.0, SVG Export Plug-In . SVG Version: 6.00 Build 0)  -->
<!DOCTYPE svg PUBLIC "-//W3C//DTD SVG 1.1//EN" "http://www.w3.org/Graphics/SVG/1.1/DTD/svg11.dtd">
<svg xmlns="http://www.w3.org/2000/svg" xmlns:xlink="http://www.w3.org/1999/xlink" xmlns:dc="http://purl.org/dc/elements/1.1/" xmlns:cc="http://creativecommons.org/ns#" xmlns:rdf="http://www.w3.org/1999/02/22-rdf-syntax-ns#" version="1.1" x="0px" y="0px" viewBox="0 0 32 32" enable-background="new 0 0 32 32" xml:space="preserve">
<title property="dc:title">to four-wheel</title><desc property="dc:description">An icon for "four-wheel" from the Bent Blocks series on to [icon]. Downloaded from http://www.toicon.com/icons/bent-blocks_four-wheel by 192.161.158.18 on 2015-08-13. Licensed CC-BY, see http://toicon.com/license/ for details.</desc><g id="GRID">
</g>
<g id="Layer_1">
	<g>
		<g>
			<path fill="#0B1719" d="M9.571,9.62c-2.71-1.898-6.459-1.237-8.356,1.473c-1.898,2.71-1.237,6.459,1.473,8.356     c2.71,1.898,6.459,1.237,8.356-1.473C12.942,15.266,12.281,11.518,9.571,9.62z M9.406,16.829     c-1.265,1.807-3.764,2.247-5.571,0.982c-1.807-1.265-2.247-3.764-0.982-5.571c1.265-1.807,3.764-2.247,5.571-0.982     C10.23,12.523,10.671,15.022,9.406,16.829z"/>
			<path fill="#0B1719" d="M7.85,12.077c-1.357-0.95-3.228-0.62-4.178,0.737c-0.95,1.357-0.62,3.228,0.737,4.178     c1.357,0.95,3.228,0.621,4.178-0.737C9.537,14.898,9.207,13.028,7.85,12.077z M6.949,15.108     c-0.316,0.452-0.941,0.562-1.393,0.246c-0.452-0.316-0.562-0.941-0.246-1.393c0.316-0.452,0.941-0.562,1.393-0.246     C7.155,14.032,7.265,14.657,6.949,15.108z"/>
			<path fill="#0B1719" d="M25.948,21.087c-2.71-1.898-6.459-1.237-8.356,1.473c-1.898,2.71-1.237,6.459,1.473,8.356     c2.71,1.898,6.459,1.237,8.356-1.473C29.319,26.733,28.658,22.985,25.948,21.087z M25.783,28.296     c-1.265,1.807-3.764,2.247-5.571,0.982c-1.807-1.265-2.247-3.764-0.982-5.571s3.764-2.247,5.571-0.982     C26.607,23.99,27.048,26.49,25.783,28.296z"/>
			<path fill="#0B1719" d="M24.233,23.549c-1.357-0.95-3.228-0.62-4.178,0.737c-0.95,1.357-0.62,3.228,0.737,4.178     c1.357,0.95,3.228,0.62,4.178-0.737C25.92,26.37,25.59,24.499,24.233,23.549z M23.332,26.58     c-0.316,0.452-0.941,0.562-1.393,0.246c-0.452-0.316-0.562-0.941-0.246-1.393c0.316-0.452,0.941-0.562,1.393-0.246     C23.538,25.504,23.648,26.128,23.332,26.58z"/>
			<path fill="#0B1719" d="M28.614,19.036l1.601-2.286L15.578,6.502l3.81-2.215l4.11,2.878l1.147-1.638l-5.157-3.611l-8.356,4.859     C9.796,5.812,8.053,5.057,5.76,4.746L5.492,6.728c7.106,0.963,7.864,6.94,7.943,7.979l-1.896,6.057l3.287,2.302l5.055-3.923     c1.047-0.281,6.889-1.519,10.218,4.815l1.771-0.93C30.939,21.258,29.814,19.967,28.614,19.036z M14.765,20.582l-0.881-0.617     l0.627-2.003l1.908,1.336L14.765,20.582z M19.094,17.29l-0.157,0.054l-0.864,0.671l-2.934-2.055l0.307-0.982l-0.003-0.163     c-0.001-0.057-0.131-3.71-2.753-6.634l0.983-0.572l13.756,9.632l-0.512,0.731C23.793,16.412,20.549,16.791,19.094,17.29z"/>
		</g>
		<rect x="1" y="2.5" fill="#0B1719" width="2" height="3"/>
		<rect x="29" y="30" fill="#0B1719" width="3" height="2"/>

			<rect x="27.768" y="8.268" transform="matrix(0.7071 0.7071 -0.7071 0.7071 15.3327 -17.481)" fill="#0B1719" width="2" height="3"/>
		<polygon fill="#0B1719" points="14.361,32 17.848,32 0,19.503 0,21.945   "/>
	</g>
</g>
<metadata><work rdf:about=""><format>image/svg+xml</format><type rdf:resource="http://purl.org/dc/dcmitype/StillImage"/><license rdf:resource="http://creativecommons.org/licenses/by/4.0/"/><attributionname>Jo Szczepanska</attributionname><attributionurl>http://www.toicon.com/icons/bent-blocks_four-wheel</attributionurl></work></metadata></svg>
